<?xml version="1.0" encoding="UTF-8"?>
<svg width="800" height="600" viewBox="0 0 800 600" fill="none" xmlns="http://www.w3.org/2000/svg">
  <!-- Fondo con gradiente -->
  <defs>
    <linearGradient id="grad1" x1="0%" y1="0%" x2="100%" y2="100%">
      <stop offset="0%" style="stop-color:#34D399;stop-opacity:0.2" />
      <stop offset="100%" style="stop-color:#34D399;stop-opacity:0.1" />
    </linearGradient>
  </defs>
  
  <!-- Elementos decorativos de fondo -->
  <circle cx="400" cy="300" r="250" fill="url(#grad1)" />
  
  <!-- Grupo principal -->
  <g transform="translate(250,150)">
    <!-- Edificio/Empresa -->
    <rect x="50" y="100" width="200" height="200" fill="#34D399" opacity="0.8" />
    <rect x="80" y="130" width="40" height="40" fill="white" />
    <rect x="180" y="130" width="40" height="40" fill="white" />
    <rect x="80" y="190" width="40" height="40" fill="white" />
    <rect x="180" y="190" width="40" height="40" fill="white" />
    
    <!-- Elementos tecnológicos -->
    <circle cx="150" cy="50" r="30" fill="#34D399" />
    <path d="M150 30 L150 70" stroke="white" stroke-width="4" />
    <path d="M130 50 L170 50" stroke="white" stroke-width="4" />
    
    <!-- Conexiones -->
    <path d="M150 80 L150 100" stroke="#34D399" stroke-width="2" stroke-dasharray="5 3" />
    <circle cx="300" cy="150" r="20" fill="#34D399" opacity="0.6" />
    <circle cx="300" cy="250" r="20" fill="#34D399" opacity="0.6" />
    <path d="M250 150 L280 150" stroke="#34D399" stroke-width="2" />
    <path d="M250 250 L280 250" stroke="#34D399" stroke-width="2" />
  </g>
</svg> 